<?xml version="1.0" encoding="utf-8"?>
<!-- Generator: Adobe Illustrator 21.1.0, SVG Export Plug-In . SVG Version: 6.00 Build 0)  -->
<svg version="1.1" id="Layer_1" xmlns="http://www.w3.org/2000/svg" xmlns:xlink="http://www.w3.org/1999/xlink" x="0px" y="0px"
	 viewBox="0 0 110 110" style="enable-background:new 0 0 110 110;" xml:space="preserve">
<style type="text/css">
	.st0{fill:#FFFFFF;}
</style>
<path class="st0" d="M55,0C24.6,0,0,24.6,0,55s24.6,55,55,55c30.4,0,55-24.6,55-55S85.4,0,55,0z M54.4,12.9c6.1,0,11,4.9,11,11
	s-4.9,11-11,11s-11-4.9-11-11S48.3,12.9,54.4,12.9z M64.2,97.6H44.6c-1.3,0-2.4-0.9-2.8-2.1c3.4-2.5,5.6-7.1,5.6-12.4V54.4
	c0-1.1-0.1-2.2-0.3-3.2c-3-0.5-5.3-2.4-5.3-4.6c0-2.6,3.1-4.8,7-4.8h11.3c0.6,0,1.2,0.1,1.8,0.2v12.1v8.5V83c0,5.1,2.1,9.6,5.2,12.2
	C66.8,96.6,65.7,97.6,64.2,97.6z"/>
</svg>
