<?xml version="1.0" encoding="utf-8"?>
<!-- Generator: Adobe Illustrator 23.0.6, SVG Export Plug-In . SVG Version: 6.00 Build 0)  -->
<svg version="1.1" id="Layer_1" xmlns="http://www.w3.org/2000/svg" xmlns:xlink="http://www.w3.org/1999/xlink" x="0px" y="0px"
	 viewBox="0 0 16 16" style="enable-background:new 0 0 16 16;" xml:space="preserve">
<style type="text/css">
	.st0{fill:#FFFFFF;}
</style>
<path class="st0" d="M15,6h-5V1c0-0.6-0.4-1-1-1H7C6.4,0,6,0.4,6,1v5H1C0.4,6,0,6.4,0,7v2c0,0.6,0.4,1,1,1h5v5c0,0.6,0.4,1,1,1h2
	c0.6,0,1-0.4,1-1v-5h5c0.6,0,1-0.4,1-1V7C16,6.4,15.6,6,15,6z"/>
</svg>
