<?xml version="1.0" encoding="utf-8"?>
<!-- Generator: Adobe Illustrator 21.1.0, SVG Export Plug-In . SVG Version: 6.00 Build 0)  -->
<svg version="1.1" id="Layer_1" xmlns="http://www.w3.org/2000/svg" xmlns:xlink="http://www.w3.org/1999/xlink" x="0px" y="0px"
	 viewBox="0 0 1119 92.5" style="enable-background:new 0 0 1119 92.5;" xml:space="preserve">
<style type="text/css">
	.st0{fill:#FFFFFF;}
</style>
<path class="st0" d="M225.6,9.2c6.5-0.2,13.1,0,19.7-0.1c0,19.6,0,39.2,0,58.9c10.7,0,21.4,0,32.1,0c0,5.6,0,11.2,0,16.8
	c-17.3,0-34.6,0-51.8,0C225.5,59.6,225.4,34.3,225.6,9.2z"/>
<path class="st0" d="M371.7,9.1c6.6,0,13.2,0,19.8,0c0,10.3,0,20.6,0,30.9c10.2,0,20.4,0,30.6,0c0-10.3,0-20.6,0-30.9
	c6.6,0,13.2,0,19.8,0c0,25.2,0,50.5,0,75.7c-6.6,0-13.2,0-19.8,0c0-9.7,0-19.4,0-29c-10.2,0-20.4,0-30.6,0c0,9.7,0,19.4,0,29
	c-6.6,0-13.2,0-19.8,0C371.7,59.5,371.7,34.3,371.7,9.1z"/>
<path class="st0" d="M575.2,9.2c3.7,0,7.4,0,11.1,0c8.3,21.3,16.6,42.7,24.9,64c8.3-21.3,16.6-42.7,25-64c3.6,0,7.3,0,10.9,0
	c-10.2,25.2-20.5,50.4-30.7,75.6c-3.6,0-7.2,0-10.8,0C595.5,59.6,585.3,34.4,575.2,9.2z"/>
<path class="st0" d="M754.3,9.2c14.4,19.6,28.8,39.1,43.3,58.6c0-19.5,0-39.1,0-58.6c3.4,0,6.8,0,10.2,0c0,25.2,0,50.4,0,75.6
	c-3.5,0-7,0-10.5,0c-14.4-19.5-28.8-39-43.2-58.5c0,19.5,0,39,0,58.5c-3.5,0-6.9,0-10.4,0c0-25.2,0-50.4,0-75.6
	C747.3,9.2,750.8,9.2,754.3,9.2z"/>
<path class="st0" d="M884.9,9.2c0,3.2,0,6.3,0,9.5c-8.1,0-16.3,0-24.4,0c0,22,0,44.1,0,66.1c-3.5,0-6.9,0-10.4,0c0-22,0-44.1,0-66.1
	c-8.1,0-16.2,0-24.3,0c0-3.2,0-6.3,0-9.5C845.5,9.2,865.2,9.2,884.9,9.2z"/>
<path class="st0" d="M1013,8.6c9.8,0.3,19.4,4.1,26.9,10.3c-2,2.5-3.9,5-5.9,7.6c-7.4-6.4-17.1-9.9-27-8.3c-7.6,0.8-14,5-19,10.6
	c-5.8,7.5-7.8,17.7-4.9,26.8c3.4,11.6,14.9,20.4,26.9,20.6c7.3,0.4,14.1-2,20.3-5.8c0-7.5,0-15,0-22.5c3.1,0,6.1,0,9.2,0
	c0,9.3,0,18.6,0,27.9c-9.6,7.1-21.6,10.8-33.5,9.5c-10-0.8-18.5-5.9-25.4-13c-3.2-3.4-5.3-7.9-7-12.1c-5.8-15.2-0.6-34.2,13.1-43.5
	C994.3,10.6,1003.6,8.5,1013,8.6z"/>
<path class="st0" d="M1065.3,9.3c17.4-0.2,35,0,52.4-0.1c0,3.1,0,6.3,0,9.4c-14,0-28.1,0-42.1,0c0,7.8,0,15.6,0,23.3
	c12.6,0,25.1,0,37.7,0c0,3.1,0,6.3,0,9.4c-12.6,0-25.1,0-37.7,0c0,8,0,16,0,24.1c14.5,0,28.9,0,43.4,0c0,3.1,0,6.3,0,9.4
	c-17.9,0-35.9,0-53.8,0C1065.3,59.7,1065.1,34.3,1065.3,9.3z"/>
<path class="st0" d="M693.3,9.2c-3.6,0.1-7.2-0.2-10.7,0.1c-1.2,2.1-2.1,4.5-3.1,6.7c-10.2,22.9-20.4,45.8-30.5,68.8
	c3.6,0,7.3,0,10.9,0c2.6-6.1,5.2-12.2,7.9-18.4c13.3,0,26.6,0,39.8,0c2.7,6.1,5.3,12.2,8,18.3c3.7,0,7.5,0,11.2,0
	C715.6,59.6,704.4,34.4,693.3,9.2z M671.8,57c5.2-12.2,10.5-24.5,15.8-36.7c5.4,12.2,10.7,24.5,16,36.7C692.9,57,682.4,57,671.8,57z
	"/>
<path class="st0" d="M929.4,9.2c-3.6,0.1-7.2-0.2-10.7,0.1c-11.3,24.9-22.5,50.5-33.7,75.5c3.6,0,7.3,0,10.9,0
	c2.6-6.1,5.2-12.2,7.9-18.4c13.3,0,26.6,0,39.8,0c2.7,6.1,5.3,12.2,8,18.4c3.8,0,7.5,0,11.2,0C951.7,59.6,940.6,34.4,929.4,9.2z
	 M907.9,57c5.2-12.2,10.5-24.5,15.8-36.7c5.3,12.2,10.7,24.5,16,36.7C929.1,57,918.5,57,907.9,57z"/>
<path class="st0" d="M89.2,28.6c-5-12.5-15.8-22.5-28.6-26.5c-7-2.3-14.8-2.6-22-1.6c-11.3,1.9-21.7,8-28.7,17.1
	C-0.1,30.2-2.9,47.8,3.1,62.8C7.9,75.6,18.7,86,31.8,90.2c14.5,4.8,31.2,2.1,43.2-7.5C91,70.2,97.2,47.4,89.2,28.6z M67.8,50.5
	c-9.9,5.8-19.8,11.6-29.6,17.4c-1.5,0.8-3.4,1.9-5,1c-1.8-0.8-2.4-2.2-2.3-4.1c0-10.4,0-20.7,0-31.1c0-2.6-0.1-5.3,0.1-8
	c0.6-1.7,2-2.6,3.8-2.8c1.5,0.4,2.8,1.1,4.2,1.9c9.6,5.7,19.3,11.4,29,17c1.3,0.9,3.5,2,3.5,3.9C71.8,48.3,69.6,49.4,67.8,50.5z"/>
<path class="st0" d="M353.2,22.6c-2.5-4.7-6.6-8.6-11.6-10.5c-7.2-3.2-14.8-3-22.6-3c-8.9,0.1-17.8-0.1-26.7,0.1
	c-0.2,25.1,0,50.5-0.1,75.6c6.6,0,13.2,0,19.8,0c0-7,0-14,0-21c9.3-0.2,20.5,1.1,29.1-3c6.8-2.7,12-9,13.7-16.1
	C356.7,37.6,356.5,29.3,353.2,22.6z M335.4,43.2c-1.8,3-4.9,4.3-8.3,4.7c-5,0.4-10,0.1-15,0.2c0-7.7,0-15.5,0-23.2
	c5.9,0.2,12.4-0.5,18.2,0.9C337.3,27.9,339.2,37.4,335.4,43.2z"/>
<path class="st0" d="M180.9,9.1c-6.8,0-13.5-0.1-20.3,0c-10.9,25.2-21.7,50.5-32.5,75.7c6.8,0,13.5,0,20.3,0
	c1.8-4.5,3.5-8.9,5.3-13.4c10.9,0,21.8,0,32.7,0c1.7,4.5,3.5,8.9,5.2,13.4c7,0,14.1,0,21.1,0C202.1,59.5,191.5,34.3,180.9,9.1z
	 M159.7,56.3c3.5-9,7-18,10.6-27c3.5,9,6.9,18,10.4,27C173.6,56.3,166.6,56.3,159.7,56.3z"/>
<path class="st0" d="M507.4,9.1c-6.8,0-13.5,0-20.3,0c-10.9,25.2-21.7,50.5-32.5,75.7c6.8,0,13.5,0,20.3,0c1.8-4.5,3.5-8.9,5.3-13.4
	c10.9,0,21.8,0,32.7,0c1.7,4.5,3.5,8.9,5.2,13.4c7,0,14,0,21,0C528.6,59.5,518,34.3,507.4,9.1z M486.2,56.3c3.5-9,7-18,10.6-27
	c3.5,9,6.9,18,10.4,27C500.1,56.3,493.1,56.3,486.2,56.3z"/>
</svg>
